<mxfile host="app.diagrams.net" modified="2021-04-26T01:44:02.157Z" agent="5.0 (Windows NT 10.0; Win64; x64) AppleWebKit/537.36 (KHTML, like Gecko) Chrome/89.0.4389.128 Safari/537.36" etag="ysFAtnwbFjeiCFI93w88" version="14.6.6" type="github">
  <diagram id="juEinIWQoRX0E2Khux-H" name="Page-1">
    <mxGraphModel dx="1422" dy="705" grid="1" gridSize="10" guides="1" tooltips="1" connect="1" arrows="1" fold="1" page="1" pageScale="1" pageWidth="850" pageHeight="1100" math="0" shadow="0">
      <root>
        <mxCell id="0" />
        <mxCell id="1" parent="0" />
        <mxCell id="41yqJCBrjfxRioHiwp8N-13" style="edgeStyle=orthogonalEdgeStyle;rounded=0;orthogonalLoop=1;jettySize=auto;html=1;exitX=0.5;exitY=1;exitDx=0;exitDy=0;" edge="1" parent="1" source="41yqJCBrjfxRioHiwp8N-1" target="41yqJCBrjfxRioHiwp8N-3">
          <mxGeometry relative="1" as="geometry" />
        </mxCell>
        <mxCell id="41yqJCBrjfxRioHiwp8N-14" style="edgeStyle=orthogonalEdgeStyle;rounded=0;orthogonalLoop=1;jettySize=auto;html=1;exitX=0.5;exitY=1;exitDx=0;exitDy=0;" edge="1" parent="1" source="41yqJCBrjfxRioHiwp8N-1" target="41yqJCBrjfxRioHiwp8N-2">
          <mxGeometry relative="1" as="geometry" />
        </mxCell>
        <mxCell id="41yqJCBrjfxRioHiwp8N-15" style="edgeStyle=orthogonalEdgeStyle;rounded=0;orthogonalLoop=1;jettySize=auto;html=1;exitX=0.5;exitY=1;exitDx=0;exitDy=0;" edge="1" parent="1" source="41yqJCBrjfxRioHiwp8N-1" target="41yqJCBrjfxRioHiwp8N-4">
          <mxGeometry relative="1" as="geometry" />
        </mxCell>
        <mxCell id="41yqJCBrjfxRioHiwp8N-16" style="edgeStyle=orthogonalEdgeStyle;rounded=0;orthogonalLoop=1;jettySize=auto;html=1;exitX=0.5;exitY=1;exitDx=0;exitDy=0;" edge="1" parent="1" source="41yqJCBrjfxRioHiwp8N-1" target="41yqJCBrjfxRioHiwp8N-5">
          <mxGeometry relative="1" as="geometry" />
        </mxCell>
        <mxCell id="41yqJCBrjfxRioHiwp8N-1" value="BrainGangFitness.fun WBS Chart" style="rounded=1;whiteSpace=wrap;html=1;fillColor=#f5f5f5;strokeColor=#666666;fontColor=#333333;" vertex="1" parent="1">
          <mxGeometry x="350" y="40" width="120" height="60" as="geometry" />
        </mxCell>
        <mxCell id="41yqJCBrjfxRioHiwp8N-20" style="edgeStyle=orthogonalEdgeStyle;rounded=0;orthogonalLoop=1;jettySize=auto;html=1;exitX=0.5;exitY=1;exitDx=0;exitDy=0;entryX=1;entryY=0.5;entryDx=0;entryDy=0;" edge="1" parent="1" source="41yqJCBrjfxRioHiwp8N-2" target="41yqJCBrjfxRioHiwp8N-19">
          <mxGeometry relative="1" as="geometry" />
        </mxCell>
        <mxCell id="41yqJCBrjfxRioHiwp8N-21" style="edgeStyle=orthogonalEdgeStyle;rounded=0;orthogonalLoop=1;jettySize=auto;html=1;exitX=0.5;exitY=1;exitDx=0;exitDy=0;entryX=1;entryY=0.5;entryDx=0;entryDy=0;" edge="1" parent="1" source="41yqJCBrjfxRioHiwp8N-2" target="41yqJCBrjfxRioHiwp8N-17">
          <mxGeometry relative="1" as="geometry" />
        </mxCell>
        <mxCell id="41yqJCBrjfxRioHiwp8N-23" style="edgeStyle=orthogonalEdgeStyle;rounded=0;orthogonalLoop=1;jettySize=auto;html=1;exitX=0.5;exitY=1;exitDx=0;exitDy=0;entryX=0;entryY=0.5;entryDx=0;entryDy=0;" edge="1" parent="1" source="41yqJCBrjfxRioHiwp8N-2" target="41yqJCBrjfxRioHiwp8N-22">
          <mxGeometry relative="1" as="geometry" />
        </mxCell>
        <mxCell id="41yqJCBrjfxRioHiwp8N-26" style="edgeStyle=orthogonalEdgeStyle;rounded=0;orthogonalLoop=1;jettySize=auto;html=1;exitX=0.5;exitY=1;exitDx=0;exitDy=0;entryX=0;entryY=0.5;entryDx=0;entryDy=0;" edge="1" parent="1" source="41yqJCBrjfxRioHiwp8N-2" target="41yqJCBrjfxRioHiwp8N-25">
          <mxGeometry relative="1" as="geometry" />
        </mxCell>
        <mxCell id="41yqJCBrjfxRioHiwp8N-2" value="Research" style="rounded=1;whiteSpace=wrap;html=1;fillColor=#d5e8d4;strokeColor=#82b366;" vertex="1" parent="1">
          <mxGeometry x="270" y="140" width="120" height="60" as="geometry" />
        </mxCell>
        <mxCell id="41yqJCBrjfxRioHiwp8N-9" style="edgeStyle=orthogonalEdgeStyle;rounded=0;orthogonalLoop=1;jettySize=auto;html=1;exitX=0.5;exitY=1;exitDx=0;exitDy=0;entryX=1;entryY=0.5;entryDx=0;entryDy=0;" edge="1" parent="1" source="41yqJCBrjfxRioHiwp8N-3" target="41yqJCBrjfxRioHiwp8N-6">
          <mxGeometry relative="1" as="geometry" />
        </mxCell>
        <mxCell id="41yqJCBrjfxRioHiwp8N-10" style="edgeStyle=orthogonalEdgeStyle;rounded=0;orthogonalLoop=1;jettySize=auto;html=1;exitX=0.5;exitY=1;exitDx=0;exitDy=0;entryX=1;entryY=0.5;entryDx=0;entryDy=0;" edge="1" parent="1" source="41yqJCBrjfxRioHiwp8N-3" target="41yqJCBrjfxRioHiwp8N-7">
          <mxGeometry relative="1" as="geometry" />
        </mxCell>
        <mxCell id="41yqJCBrjfxRioHiwp8N-11" style="edgeStyle=orthogonalEdgeStyle;rounded=0;orthogonalLoop=1;jettySize=auto;html=1;exitX=0.5;exitY=1;exitDx=0;exitDy=0;entryX=1;entryY=0.5;entryDx=0;entryDy=0;" edge="1" parent="1" source="41yqJCBrjfxRioHiwp8N-3" target="41yqJCBrjfxRioHiwp8N-8">
          <mxGeometry relative="1" as="geometry" />
        </mxCell>
        <mxCell id="41yqJCBrjfxRioHiwp8N-28" style="edgeStyle=orthogonalEdgeStyle;rounded=0;orthogonalLoop=1;jettySize=auto;html=1;exitX=0.5;exitY=1;exitDx=0;exitDy=0;entryX=0;entryY=0.5;entryDx=0;entryDy=0;" edge="1" parent="1" source="41yqJCBrjfxRioHiwp8N-3" target="41yqJCBrjfxRioHiwp8N-27">
          <mxGeometry relative="1" as="geometry" />
        </mxCell>
        <mxCell id="41yqJCBrjfxRioHiwp8N-3" value="Planning" style="rounded=1;whiteSpace=wrap;html=1;fillColor=#dae8fc;strokeColor=#6c8ebf;" vertex="1" parent="1">
          <mxGeometry x="90" y="140" width="120" height="60" as="geometry" />
        </mxCell>
        <mxCell id="41yqJCBrjfxRioHiwp8N-29" style="edgeStyle=orthogonalEdgeStyle;rounded=0;orthogonalLoop=1;jettySize=auto;html=1;exitX=0.5;exitY=1;exitDx=0;exitDy=0;entryX=1;entryY=0.5;entryDx=0;entryDy=0;" edge="1" parent="1" source="41yqJCBrjfxRioHiwp8N-4" target="41yqJCBrjfxRioHiwp8N-27">
          <mxGeometry relative="1" as="geometry">
            <Array as="points">
              <mxPoint x="490" y="470" />
            </Array>
          </mxGeometry>
        </mxCell>
        <mxCell id="41yqJCBrjfxRioHiwp8N-31" style="edgeStyle=orthogonalEdgeStyle;rounded=0;orthogonalLoop=1;jettySize=auto;html=1;exitX=0.5;exitY=1;exitDx=0;exitDy=0;entryX=1;entryY=0.5;entryDx=0;entryDy=0;" edge="1" parent="1" source="41yqJCBrjfxRioHiwp8N-4" target="41yqJCBrjfxRioHiwp8N-30">
          <mxGeometry relative="1" as="geometry" />
        </mxCell>
        <mxCell id="41yqJCBrjfxRioHiwp8N-42" style="edgeStyle=orthogonalEdgeStyle;rounded=0;orthogonalLoop=1;jettySize=auto;html=1;exitX=0.5;exitY=1;exitDx=0;exitDy=0;entryX=0;entryY=0.5;entryDx=0;entryDy=0;" edge="1" parent="1" source="41yqJCBrjfxRioHiwp8N-4" target="41yqJCBrjfxRioHiwp8N-41">
          <mxGeometry relative="1" as="geometry" />
        </mxCell>
        <mxCell id="41yqJCBrjfxRioHiwp8N-47" style="edgeStyle=orthogonalEdgeStyle;rounded=0;orthogonalLoop=1;jettySize=auto;html=1;exitX=0.5;exitY=1;exitDx=0;exitDy=0;entryX=1;entryY=0.5;entryDx=0;entryDy=0;" edge="1" parent="1" source="41yqJCBrjfxRioHiwp8N-4" target="41yqJCBrjfxRioHiwp8N-46">
          <mxGeometry relative="1" as="geometry">
            <Array as="points">
              <mxPoint x="490" y="620" />
              <mxPoint x="320" y="620" />
              <mxPoint x="320" y="670" />
            </Array>
          </mxGeometry>
        </mxCell>
        <mxCell id="41yqJCBrjfxRioHiwp8N-48" style="edgeStyle=orthogonalEdgeStyle;rounded=0;orthogonalLoop=1;jettySize=auto;html=1;exitX=0.5;exitY=1;exitDx=0;exitDy=0;entryX=1;entryY=0.5;entryDx=0;entryDy=0;" edge="1" parent="1" source="41yqJCBrjfxRioHiwp8N-4" target="41yqJCBrjfxRioHiwp8N-45">
          <mxGeometry relative="1" as="geometry">
            <Array as="points">
              <mxPoint x="490" y="620" />
              <mxPoint x="320" y="620" />
              <mxPoint x="320" y="570" />
            </Array>
          </mxGeometry>
        </mxCell>
        <mxCell id="41yqJCBrjfxRioHiwp8N-51" style="edgeStyle=orthogonalEdgeStyle;rounded=0;orthogonalLoop=1;jettySize=auto;html=1;exitX=0.5;exitY=1;exitDx=0;exitDy=0;entryX=0;entryY=0.5;entryDx=0;entryDy=0;" edge="1" parent="1" source="41yqJCBrjfxRioHiwp8N-4" target="41yqJCBrjfxRioHiwp8N-50">
          <mxGeometry relative="1" as="geometry" />
        </mxCell>
        <mxCell id="41yqJCBrjfxRioHiwp8N-53" style="edgeStyle=orthogonalEdgeStyle;rounded=0;orthogonalLoop=1;jettySize=auto;html=1;exitX=0.5;exitY=1;exitDx=0;exitDy=0;entryX=0;entryY=0.5;entryDx=0;entryDy=0;" edge="1" parent="1" source="41yqJCBrjfxRioHiwp8N-4" target="41yqJCBrjfxRioHiwp8N-52">
          <mxGeometry relative="1" as="geometry">
            <mxPoint x="490" y="388" as="targetPoint" />
          </mxGeometry>
        </mxCell>
        <mxCell id="41yqJCBrjfxRioHiwp8N-54" style="edgeStyle=orthogonalEdgeStyle;rounded=0;orthogonalLoop=1;jettySize=auto;html=1;exitX=0.5;exitY=1;exitDx=0;exitDy=0;entryX=0;entryY=0.5;entryDx=0;entryDy=0;" edge="1" parent="1" source="41yqJCBrjfxRioHiwp8N-4" target="41yqJCBrjfxRioHiwp8N-49">
          <mxGeometry relative="1" as="geometry">
            <mxPoint x="490" y="560" as="targetPoint" />
          </mxGeometry>
        </mxCell>
        <mxCell id="41yqJCBrjfxRioHiwp8N-73" style="edgeStyle=orthogonalEdgeStyle;rounded=0;orthogonalLoop=1;jettySize=auto;html=1;exitX=0.5;exitY=1;exitDx=0;exitDy=0;entryX=0.5;entryY=0;entryDx=0;entryDy=0;" edge="1" parent="1" source="41yqJCBrjfxRioHiwp8N-4" target="41yqJCBrjfxRioHiwp8N-69">
          <mxGeometry relative="1" as="geometry">
            <mxPoint x="410" y="670" as="targetPoint" />
            <Array as="points">
              <mxPoint x="490" y="620" />
              <mxPoint x="400" y="620" />
            </Array>
          </mxGeometry>
        </mxCell>
        <mxCell id="41yqJCBrjfxRioHiwp8N-4" value="Documentation" style="rounded=1;whiteSpace=wrap;html=1;fillColor=#fff2cc;strokeColor=#d6b656;" vertex="1" parent="1">
          <mxGeometry x="430" y="140" width="120" height="60" as="geometry" />
        </mxCell>
        <mxCell id="41yqJCBrjfxRioHiwp8N-43" style="edgeStyle=orthogonalEdgeStyle;rounded=0;orthogonalLoop=1;jettySize=auto;html=1;exitX=0.5;exitY=1;exitDx=0;exitDy=0;entryX=1;entryY=0.5;entryDx=0;entryDy=0;" edge="1" parent="1" source="41yqJCBrjfxRioHiwp8N-5" target="41yqJCBrjfxRioHiwp8N-41">
          <mxGeometry relative="1" as="geometry" />
        </mxCell>
        <mxCell id="41yqJCBrjfxRioHiwp8N-63" style="edgeStyle=orthogonalEdgeStyle;rounded=0;orthogonalLoop=1;jettySize=auto;html=1;exitX=0.5;exitY=1;exitDx=0;exitDy=0;entryX=0;entryY=0.5;entryDx=0;entryDy=0;" edge="1" parent="1" source="41yqJCBrjfxRioHiwp8N-5" target="41yqJCBrjfxRioHiwp8N-55">
          <mxGeometry relative="1" as="geometry" />
        </mxCell>
        <mxCell id="41yqJCBrjfxRioHiwp8N-64" style="edgeStyle=orthogonalEdgeStyle;rounded=0;orthogonalLoop=1;jettySize=auto;html=1;exitX=0.5;exitY=1;exitDx=0;exitDy=0;entryX=0;entryY=0.5;entryDx=0;entryDy=0;" edge="1" parent="1" source="41yqJCBrjfxRioHiwp8N-5" target="41yqJCBrjfxRioHiwp8N-56">
          <mxGeometry relative="1" as="geometry" />
        </mxCell>
        <mxCell id="41yqJCBrjfxRioHiwp8N-65" style="edgeStyle=orthogonalEdgeStyle;rounded=0;orthogonalLoop=1;jettySize=auto;html=1;exitX=0.5;exitY=1;exitDx=0;exitDy=0;entryX=0;entryY=0.5;entryDx=0;entryDy=0;" edge="1" parent="1" source="41yqJCBrjfxRioHiwp8N-5" target="41yqJCBrjfxRioHiwp8N-57">
          <mxGeometry relative="1" as="geometry" />
        </mxCell>
        <mxCell id="41yqJCBrjfxRioHiwp8N-66" style="edgeStyle=orthogonalEdgeStyle;rounded=0;orthogonalLoop=1;jettySize=auto;html=1;exitX=0.5;exitY=1;exitDx=0;exitDy=0;entryX=0;entryY=0.5;entryDx=0;entryDy=0;" edge="1" parent="1" source="41yqJCBrjfxRioHiwp8N-5" target="41yqJCBrjfxRioHiwp8N-58">
          <mxGeometry relative="1" as="geometry" />
        </mxCell>
        <mxCell id="41yqJCBrjfxRioHiwp8N-67" style="edgeStyle=orthogonalEdgeStyle;rounded=0;orthogonalLoop=1;jettySize=auto;html=1;exitX=0.5;exitY=1;exitDx=0;exitDy=0;entryX=0;entryY=0.5;entryDx=0;entryDy=0;" edge="1" parent="1" source="41yqJCBrjfxRioHiwp8N-5" target="41yqJCBrjfxRioHiwp8N-59">
          <mxGeometry relative="1" as="geometry" />
        </mxCell>
        <mxCell id="41yqJCBrjfxRioHiwp8N-68" style="edgeStyle=orthogonalEdgeStyle;rounded=0;orthogonalLoop=1;jettySize=auto;html=1;exitX=0.5;exitY=1;exitDx=0;exitDy=0;entryX=1;entryY=0.5;entryDx=0;entryDy=0;" edge="1" parent="1" source="41yqJCBrjfxRioHiwp8N-5" target="41yqJCBrjfxRioHiwp8N-60">
          <mxGeometry relative="1" as="geometry" />
        </mxCell>
        <mxCell id="41yqJCBrjfxRioHiwp8N-71" style="edgeStyle=orthogonalEdgeStyle;rounded=0;orthogonalLoop=1;jettySize=auto;html=1;exitX=0.5;exitY=1;exitDx=0;exitDy=0;entryX=0;entryY=0.5;entryDx=0;entryDy=0;" edge="1" parent="1" source="41yqJCBrjfxRioHiwp8N-5" target="41yqJCBrjfxRioHiwp8N-61">
          <mxGeometry relative="1" as="geometry" />
        </mxCell>
        <mxCell id="41yqJCBrjfxRioHiwp8N-72" style="edgeStyle=orthogonalEdgeStyle;rounded=0;orthogonalLoop=1;jettySize=auto;html=1;exitX=0.5;exitY=1;exitDx=0;exitDy=0;entryX=1;entryY=0.5;entryDx=0;entryDy=0;" edge="1" parent="1" source="41yqJCBrjfxRioHiwp8N-5" target="41yqJCBrjfxRioHiwp8N-70">
          <mxGeometry relative="1" as="geometry" />
        </mxCell>
        <mxCell id="41yqJCBrjfxRioHiwp8N-5" value="Development" style="rounded=1;whiteSpace=wrap;html=1;fillColor=#f8cecc;strokeColor=#b85450;" vertex="1" parent="1">
          <mxGeometry x="610" y="140" width="120" height="60" as="geometry" />
        </mxCell>
        <mxCell id="41yqJCBrjfxRioHiwp8N-6" value="Tool Selection" style="rounded=1;whiteSpace=wrap;html=1;fillColor=#dae8fc;strokeColor=#6c8ebf;" vertex="1" parent="1">
          <mxGeometry x="20" y="260" width="100" height="60" as="geometry" />
        </mxCell>
        <mxCell id="41yqJCBrjfxRioHiwp8N-7" value="Task Assignment" style="rounded=1;whiteSpace=wrap;html=1;fillColor=#dae8fc;strokeColor=#6c8ebf;" vertex="1" parent="1">
          <mxGeometry x="20" y="350" width="100" height="60" as="geometry" />
        </mxCell>
        <mxCell id="41yqJCBrjfxRioHiwp8N-8" value="Scheduling" style="rounded=1;whiteSpace=wrap;html=1;fillColor=#dae8fc;strokeColor=#6c8ebf;" vertex="1" parent="1">
          <mxGeometry x="20" y="440" width="100" height="60" as="geometry" />
        </mxCell>
        <mxCell id="41yqJCBrjfxRioHiwp8N-17" value="Wordpress Research" style="rounded=1;whiteSpace=wrap;html=1;fillColor=#d5e8d4;strokeColor=#82b366;" vertex="1" parent="1">
          <mxGeometry x="200" y="260" width="100" height="60" as="geometry" />
        </mxCell>
        <mxCell id="41yqJCBrjfxRioHiwp8N-19" value="Google Maps API Research" style="rounded=1;whiteSpace=wrap;html=1;fillColor=#d5e8d4;strokeColor=#82b366;" vertex="1" parent="1">
          <mxGeometry x="200" y="350" width="100" height="60" as="geometry" />
        </mxCell>
        <mxCell id="41yqJCBrjfxRioHiwp8N-22" value="Database Research" style="rounded=1;whiteSpace=wrap;html=1;fillColor=#d5e8d4;strokeColor=#82b366;" vertex="1" parent="1">
          <mxGeometry x="360" y="260" width="100" height="60" as="geometry" />
        </mxCell>
        <mxCell id="41yqJCBrjfxRioHiwp8N-25" value="Game Research" style="rounded=1;whiteSpace=wrap;html=1;fillColor=#d5e8d4;strokeColor=#82b366;" vertex="1" parent="1">
          <mxGeometry x="360" y="350" width="100" height="60" as="geometry" />
        </mxCell>
        <mxCell id="41yqJCBrjfxRioHiwp8N-27" value="Requirements" style="rounded=1;whiteSpace=wrap;html=1;fillColor=#fff2cc;strokeColor=#d6b656;" vertex="1" parent="1">
          <mxGeometry x="350" y="440" width="100" height="60" as="geometry" />
        </mxCell>
        <mxCell id="41yqJCBrjfxRioHiwp8N-30" value="High Level Architecture" style="rounded=1;whiteSpace=wrap;html=1;fillColor=#fff2cc;strokeColor=#d6b656;" vertex="1" parent="1">
          <mxGeometry x="350" y="530" width="100" height="60" as="geometry" />
        </mxCell>
        <mxCell id="41yqJCBrjfxRioHiwp8N-41" value="Progress Report" style="rounded=1;whiteSpace=wrap;html=1;fillColor=#fff2cc;strokeColor=#d6b656;" vertex="1" parent="1">
          <mxGeometry x="530" y="440" width="100" height="60" as="geometry" />
        </mxCell>
        <mxCell id="41yqJCBrjfxRioHiwp8N-45" value="Interface Diagram" style="rounded=1;whiteSpace=wrap;html=1;fillColor=#fff2cc;strokeColor=#d6b656;" vertex="1" parent="1">
          <mxGeometry x="180" y="540" width="100" height="60" as="geometry" />
        </mxCell>
        <mxCell id="41yqJCBrjfxRioHiwp8N-46" value="Object Identification" style="rounded=1;whiteSpace=wrap;html=1;fillColor=#fff2cc;strokeColor=#d6b656;" vertex="1" parent="1">
          <mxGeometry x="180" y="640" width="100" height="60" as="geometry" />
        </mxCell>
        <mxCell id="41yqJCBrjfxRioHiwp8N-49" value="SPMP" style="rounded=1;whiteSpace=wrap;html=1;fillColor=#fff2cc;strokeColor=#d6b656;" vertex="1" parent="1">
          <mxGeometry x="530" y="530" width="100" height="60" as="geometry" />
        </mxCell>
        <mxCell id="41yqJCBrjfxRioHiwp8N-50" value="Use Cases" style="rounded=1;whiteSpace=wrap;html=1;fillColor=#fff2cc;strokeColor=#d6b656;" vertex="1" parent="1">
          <mxGeometry x="530" y="260" width="100" height="60" as="geometry" />
        </mxCell>
        <mxCell id="41yqJCBrjfxRioHiwp8N-52" value="Sequence Diagrams" style="rounded=1;whiteSpace=wrap;html=1;fillColor=#fff2cc;strokeColor=#d6b656;" vertex="1" parent="1">
          <mxGeometry x="530" y="350" width="100" height="60" as="geometry" />
        </mxCell>
        <mxCell id="41yqJCBrjfxRioHiwp8N-55" value="Domain Rental" style="rounded=1;whiteSpace=wrap;html=1;fillColor=#f8cecc;strokeColor=#b85450;" vertex="1" parent="1">
          <mxGeometry x="710" y="260" width="100" height="60" as="geometry" />
        </mxCell>
        <mxCell id="41yqJCBrjfxRioHiwp8N-56" value="Site customization" style="rounded=1;whiteSpace=wrap;html=1;fillColor=#f8cecc;strokeColor=#b85450;" vertex="1" parent="1">
          <mxGeometry x="710" y="350" width="100" height="60" as="geometry" />
        </mxCell>
        <mxCell id="41yqJCBrjfxRioHiwp8N-57" value="Game programming" style="rounded=1;whiteSpace=wrap;html=1;fillColor=#f8cecc;strokeColor=#b85450;" vertex="1" parent="1">
          <mxGeometry x="710" y="440" width="100" height="60" as="geometry" />
        </mxCell>
        <mxCell id="41yqJCBrjfxRioHiwp8N-58" value="Social Media integration" style="rounded=1;whiteSpace=wrap;html=1;fillColor=#f8cecc;strokeColor=#b85450;" vertex="1" parent="1">
          <mxGeometry x="710" y="530" width="100" height="60" as="geometry" />
        </mxCell>
        <mxCell id="41yqJCBrjfxRioHiwp8N-59" value="Gym Locator" style="rounded=1;whiteSpace=wrap;html=1;fillColor=#f8cecc;strokeColor=#b85450;" vertex="1" parent="1">
          <mxGeometry x="710" y="620" width="100" height="60" as="geometry" />
        </mxCell>
        <mxCell id="41yqJCBrjfxRioHiwp8N-60" value="Database Integration" style="rounded=1;whiteSpace=wrap;html=1;fillColor=#f8cecc;strokeColor=#b85450;" vertex="1" parent="1">
          <mxGeometry x="530" y="710" width="100" height="60" as="geometry" />
        </mxCell>
        <mxCell id="41yqJCBrjfxRioHiwp8N-61" value="User profile creations and integration" style="rounded=1;whiteSpace=wrap;html=1;fillColor=#f8cecc;strokeColor=#b85450;" vertex="1" parent="1">
          <mxGeometry x="710" y="710" width="100" height="60" as="geometry" />
        </mxCell>
        <mxCell id="41yqJCBrjfxRioHiwp8N-69" value="Project Review" style="rounded=1;whiteSpace=wrap;html=1;fillColor=#fff2cc;strokeColor=#d6b656;" vertex="1" parent="1">
          <mxGeometry x="350" y="670" width="100" height="60" as="geometry" />
        </mxCell>
        <mxCell id="41yqJCBrjfxRioHiwp8N-70" value="Test Skeleton" style="rounded=1;whiteSpace=wrap;html=1;fillColor=#f8cecc;strokeColor=#b85450;" vertex="1" parent="1">
          <mxGeometry x="530" y="620" width="100" height="60" as="geometry" />
        </mxCell>
      </root>
    </mxGraphModel>
  </diagram>
</mxfile>
